# AST/ASF file generated using VICON BodyLanguage
# -----------------------------------------------
:version 1.10
:name VICON
:units
  mass 1.0
  length 0.45
  angle deg
:documentation
   .ast/.asf automatically generated from VICON data using
   VICON BodyBuilder and BodyLanguage model FoxedUp or BRILLIANT.MOD
:root
   order TX TY TZ RX RY RZ
   axis XYZ
   position 0 0 0  
   orientation 0 0 0 
:bonedata
  begin
     id 1 
     name lhipjoint
     direction 0.62366 -0.717238 0.310833 
     length 2.53602 
     axis 0 0 0  XYZ
  end
  begin
     id 2 
     name lfemur
     direction 0.34202 -0.939693 0  
     length 7.40817  
     axis 0 0 20  XYZ
    dof rx ry rz
    limits (-160.0 20.0)
           (-70.0 70.0)
           (-60.0 70.0)
  end
  begin
     id 3 
     name ltibia
     direction 0.34202 -0.939693 0   
     length 7.7045   
     axis 0 0 20   XYZ
    dof rx
    limits (-10.0 170.0)
  end
  begin
     id 4 
     name lfoot
     direction 0.0673888 -0.185149 0.980397   
     length 2.09456   
     axis -90 7.62852e-016 20   XYZ
    dof rx rz
    limits (-45.0 90.0)
           (-70.0 20.0)
  end
  begin
     id 5 
     name ltoes
     direction 1.53575e-011 -4.21994e-011 1   
     length 1.05543   
     axis -90 7.62852e-016 20   XYZ
    dof rx
    limits (-90.0 20.0)
  end
  begin
     id 6 
     name rhipjoint
     direction -0.489018 -0.800347 0.346851   
     length 2.27268  
     axis 0 0 0  XYZ 
  end
  begin
     id 7 
     name rfemur
     direction -0.34202 -0.939693 0   
     length 7.55487   
     axis 0 0 -20   XYZ
    dof rx ry rz
    limits (-160.0 20.0)
           (-70.0 70.0)
           (-70.0 60.0)
  end
  begin
     id 8 
     name rtibia
     direction -0.34202 -0.939693 0   
     length 7.78969   
     axis 0 0 -20   XYZ
    dof rx
    limits (-10.0 170.0)
 end
 begin
     id 9 
     name rfoot
     direction -0.0859318 -0.236096 0.967923   
     length 2.19143  
     axis -90 -7.62852e-016 -20   XYZ
    dof rx rz
    limits (-45.0 90.0)
           (-20.0 70.0)
  end
  begin
     id 10 
     name rtoes
     direction -1.53538e-011 -4.21989e-011 1   
     length 1.09845   
     axis -90 -7.62852e-016 -20   XYZ
    dof rx
    limits (-90.0 20.0)
  end
  begin
     id 11 
     name lowerback
     direction -0.00762546 0.998978 -0.0445553   
     length 1.98161   
     axis 0 0 0   XYZ
    dof rx ry rz
    limits (-20.0 45.0)
           (-30.0 30.0)
           (-30.0 30.0)
  end
  begin
     id 12 
     name upperback
     direction 0.0422361 0.998867 -0.0219156   
     length 1.97558   
     axis 0 0 0   XYZ
    dof rx ry rz
    limits (-20.0 45.0)
           (-30.0 30.0)
           (-30.0 30.0)
  end
  begin
     id 13 
     name thorax
     direction 0.0442465 0.999021 7.47603e-005   
     length 1.97799   
     axis 0 0 0   XYZ
    dof rx ry rz
    limits (-20.0 45.0)
           (-30.0 30.0)
           (-30.0 30.0)
  end
  begin
     id 14 
     name lowerneck
     direction 0.00312169 0.984641 0.174564   
     length 1.78995   
     axis 0 0 0   XYZ
    dof rx ry rz
    limits (-20.0 45.0)
           (-30.0 30.0)
           (-30.0 30.0)
  end
  begin
     id 15 
     name upperneck
     direction -0.0383028 0.985255 -0.166749   
     length 1.83053   
     axis 0 0 0   XYZ
    dof rx ry rz
    limits (-20.0 45.0)
           (-30.0 30.0)
           (-30.0 30.0)
  end
  begin
     id 16
     name head
     direction -0.0129546 0.997059 -0.0755386  
     length 1.84088  
     axis 0 0 0   XYZ
    dof rx ry rz
    limits (-20.0 45.0)
           (-30.0 30.0)
           (-30.0 30.0)
  end
  begin
     id 17 
     name lclavicle
     direction 0.912857 0.370519 -0.171488  
     length 3.51279  
     axis 0 0 0   XYZ
    dof ry rz
    limits (-20.0 10.0)
           (0.0 20.0)
  end
  begin
     id 18 
     name lhumerus
     direction 1 -4.48962e-011 3.64361e-027   
     length 4.95663   
     axis 180 -30 -90   XYZ
    dof rx ry rz
    limits (-60.0 90.0)
           (-90.0 90.0)
           (-90.0 90.0)
  end
  begin
     id 19
     name lradius
     direction 1 -4.48974e-011 5.97202e-027   
     length 3.38177   
     axis 180 -30 -90   XYZ
    dof rx
    limits (-10.0 170.0)
  end
  begin
     id 20
     name lwrist
     direction 1 -4.4896e-011 9.83288e-027   
     length 1.69088   
     axis -9.31221e-015 90 90   XYZ
    dof ry
    limits (-180.0 0.0)
 end
  begin
     id 21 
     name lhand
     direction 1 -4.4902e-011 1.96551e-026   
     length 0.662909   
     axis -1.25475e-014 90 90   XYZ
    dof rx rz
    limits (-90.0 90.0)
           (-45.0 45.0)
  end
  begin
     id 22 
     name lfingers
     direction 1 -4.48971e-011 3.93277e-026   
     length 0.534454   
     axis -2.50945e-014 90 90   XYZ
    dof rx
    limits (0.0 90.0)
  end
  begin
     id 23
     name lthumb
     direction 0.707107 -6.34933e-011 0.707107   
     length 0.767373   
     axis -90 45 -4.80359e-014   XYZ
    dof rx rz
    limits (-45.0 45.0)
           (-45.0 45.0)
  end
  begin
     id 24 
     name rclavicle
     direction -0.900919 0.395364 -0.178976   
     length 3.40627  
     axis 0 0 0   XYZ 
    dof ry rz
    limits (-10.0 20.0)
           (-20.0 0.0)
  end
  begin
     id 25 
     name rhumerus
     direction -1 -4.48969e-011 1.03875e-027  
     length 5.08365   
     axis 180 30 90   XYZ
    dof rx ry rz
    limits (-90.0 60.0)
           (-90.0 90.0)
           (-90.0 90.0)
  end
  begin
     id 26 
     name rradius
     direction -1 -4.48951e-011 5.02733e-027   
     length 3.35984   
     axis 180 30 90   XYZ
    dof rx
    limits (-10.0 170.0)
  end
  begin
     id 27 
     name rwrist
     direction -1 -4.49011e-011 9.82828e-027   
     length 1.67992   
     axis -9.31221e-015 -90 -90   XYZ
    dof ry
    limits (-180.0 0.0)
  end
  begin
     id 28
     name rhand
     direction -1 -4.48894e-011 1.96774e-026   
     length 0.820764   
     axis -1.25475e-014 -90 -90   XYZ
    dof rx rz
    limits (-90.0 90.0)
           (-45.0 45.0)
  end
  begin
     id 29
     name rfingers
     direction -1 -4.49095e-011 3.92833e-026   
     length 0.661721   
     axis -2.50945e-014 -90 -90   XYZ
    dof rx
    limits (0.0 90.0)
  end
  begin
     id 30
     name rthumb
     direction -0.707107 -6.34881e-011 0.707107   
     length 0.950103   
     axis -90 -45 4.80359e-014   XYZ
    dof rx rz
    limits (-45.0 45.0)
           (-45.0 45.0)
  end
:hierarchy
  begin
    root lhipjoint rhipjoint lowerback
    lhipjoint lfemur
    lfemur ltibia
    ltibia lfoot
    lfoot ltoes
    rhipjoint rfemur
    rfemur rtibia
    rtibia rfoot
    rfoot rtoes
    lowerback upperback
    upperback thorax
    thorax lowerneck lclavicle rclavicle
    lowerneck upperneck
    upperneck head
    lclavicle lhumerus
    lhumerus lradius
    lradius lwrist
    lwrist lhand lthumb
    lhand lfingers
    rclavicle rhumerus
    rhumerus rradius
    rradius rwrist
    rwrist rhand rthumb
    rhand rfingers
  end

#!OML:ASF I:\golf\golf\golf 2\Subject 1\2002-09-07\Subject1.ASF
:FULLY-SPECIFIED
:DEGREES
107
root -6.30588 17.6306 1.57633 -11.8721 53.4732 -25.8941
lowerback 0.866606 -4.70266 -10.0566
upperback 3.42838 -6.10807 -0.404666
thorax 4.12781 -3.34005 4.95147
lowerneck -10.182 14.7579 5.19582
upperneck 30.1912 23.604 -7.71412
head 13.4838 10.149 -0.145665
rclavicle 5.56597e-015 -6.36111e-015
rhumerus -12.9008 -4.01218 -93.3208
rradius 72.2941
rwrist -53.9146
rhand -56.4225 -12.9349
rfingers 7.12502
rthumb -28.7399 -40.7431
lclavicle 5.56597e-015 -6.36111e-015
lhumerus 74.2512 -71.6425 35.2241
lradius 26.0552
lwrist 14.9805
lhand 0.960675 38.7541
lfingers 7.12502
lthumb -153.49 -113.081
rfemur -29.4232 9.95365 29.539
rtibia 28.028
rfoot -6.48902 15.8571
rtoes 16.0759
lfemur -10.1015 17.9341 8.76272
ltibia 33.2092
lfoot -11.9618 17.1652
ltoes -31.2918
108
root -6.29373 17.6233 1.62239 -11.712 52.8842 -25.7342
lowerback 0.687445 -5.00781 -10.327
upperback 3.39344 -6.49262 -0.399698
thorax 4.29103 -3.54517 5.06139
lowerneck -9.84747 15.1335 5.01044
upperneck 29.6052 24.1447 -7.9366
head 13.2212 10.3822 -0.153056
rclavicle -1.04163e-013 -2.8625e-014
rhumerus -12.4698 -4.04726 -92.8239
rradius 73.9796
rwrist -54.6838
rhand -58.4581 -3.36255
rfingers 7.12502
rthumb -30.6828 -30.824
lclavicle -1.04163e-013 -2.8625e-014
lhumerus 75.4471 -70.7984 35.0707
lradius 26.0932
lwrist 14.2231
lhand 0.791657 36.3443
lfingers 7.12502
lthumb -153.652 -115.466
rfemur -29.2999 10.0509 29.8708
rtibia 28.1013
rfoot -6.35178 16.3506
rtoes 17.3876
lfemur -9.62619 17.6183 9.18694
ltibia 33.2628
lfoot -12.3735 16.9099
ltoes -28.7811
109
root -6.27722 17.6305 1.66561 -10.7395 52.3678 -24.8823
lowerback 0.330092 -5.43433 -10.9159
upperback 3.19807 -7.01136 -0.572665
thorax 4.43084 -3.81349 5.13464
lowerneck -9.45905 15.5989 5.06065
upperneck 29.0915 24.7965 -8.18498
head 13.0298 10.6823 -0.18112
rclavicle 5.56597e-014 5.725e-014
rhumerus -12.0148 -4.54034 -92.4666
rradius 75.1518
rwrist -52.6294
rhand -58.5976 -3.17471
rfingers 7.12502
rthumb -30.8157 -30.6111
lclavicle 5.56597e-014 5.725e-014
lhumerus 75.7149 -69.9396 35.6377
lradius 26.0657
lwrist 13.6252
lhand -0.545565 33.6098
lfingers 7.12502
lthumb -154.932 -118.015
rfemur -29.4861 10.1405 29.6742
rtibia 28.2116
rfoot -6.2281 16.934
rtoes 18.4944
lfemur -9.39084 17.6379 8.93455
ltibia 33.314
lfoot -12.2289 16.8864
ltoes -28.3552
110
root -6.26079 17.641 1.70519 -9.63228 51.8786 -23.7923
lowerback 0.0868135 -5.8577 -11.5351
upperback 3.00435 -7.53052 -0.822933
thorax 4.50747 -4.07618 5.14656
lowerneck -9.31968 16.0588 5.10125
upperneck 28.7544 25.4408 -8.3315
head 12.9466 10.9666 -0.144873
rclavicle 6.36111e-015 0
rhumerus -11.5107 -4.72862 -92.1614
rradius 76.4484
rwrist -51.5402
rhand -59.162 -1.95829
rfingers 7.12502
rthumb -31.3537 -29.2917
lclavicle 6.36111e-015 0
lhumerus 76.2013 -69.0864 36.0182
lradius 25.9096
lwrist 12.7513
lhand -1.67951 31.8604
lfingers 7.12502
lthumb -156.019 -119.617
rfemur -29.6535 10.1068 29.3191
rtibia 28.3694
rfoot -6.14978 17.6182
rtoes 19.1948
lfemur -9.11072 17.5567 8.47128
ltibia 33.3679
lfoot -12.2393 16.8657
ltoes -27.3698
111
root -6.25021 17.6448 1.75405 -9.2556 51.3523 -23.2215
lowerback 0.152274 -6.17844 -11.9977
upperback 2.90897 -7.95744 -0.921716
thorax 4.50132 -4.29334 5.26354
lowerneck -9.12604 16.4233 4.9883
upperneck 28.3316 25.9476 -8.47095
head 12.7831 11.1907 -0.122645
rclavicle 5.96354e-014 6.36111e-015
rhumerus -10.9838 -4.91972 -91.6313
rradius 77.7501
rwrist -50.5317
rhand -59.6559 0.248172
rfingers 7.12502
rthumb -31.8242 -26.9929
lclavicle 5.96354e-014 6.36111e-015
lhumerus 78.2006 -68.281 34.8648
lradius 26.0191
lwrist 11.9811
lhand -2.83929 30.5313
lfingers 7.12502
lthumb -157.132 -120.805
rfemur -29.4473 10.0859 29.3736
rtibia 28.5123
rfoot -6.03407 18.2453
rtoes 20.3504
lfemur -8.57531 17.5011 8.51233
ltibia 33.4748
lfoot -12.0107 16.7998
ltoes -27.5254
112
root -6.24374 17.6401 1.80736 -9.19111 50.8874 -22.788
lowerback 0.459053 -6.43126 -12.5415
upperback 2.8353 -8.32773 -0.999784
thorax 4.39169 -4.48119 5.47638
lowerneck -8.73479 16.7142 4.92643
upperneck 27.7863 26.3175 -8.63905
head 12.5331 11.3797 -0.165694
rclavicle -4.17448e-014 1.27222e-014
rhumerus -10.4824 -5.38656 -91.0688
rradius 79.0464
rwrist -49.0999
rhand -59.779 1.54603
rfingers 7.12502
rthumb -31.9415 -25.6716
lclavicle -4.17448e-014 1.27222e-014
lhumerus 79.1351 -67.5988 34.845
lradius 26.3056
lwrist 10.6479
lhand -4.12712 29.2443
lfingers 7.12502
lthumb -158.368 -121.944
rfemur -28.9945 10.1305 29.5135
rtibia 28.6017
rfoot -6.02008 18.6786
rtoes 20.9099
lfemur -7.84621 17.4605 8.76692
ltibia 33.6415
lfoot -11.7981 16.4086
ltoes -28.1794
